#!OML:ASF H:\Male1\Project 1\Capture day 1\Session 1\Male1.ASF
:FULLY-SPECIFIED
:DEGREES
1547
root 17.7663 14.6075 0.702482 449.721 -98.4845 -450.849
lowerback 15.7034 0.49188 -6.8275
upperback 6.66975 -1.22433 -7.61895
thorax -1.74139 -0.890467 -3.99569
lowerneck -27.9117 5.16497 -7.9935
upperneck 6.54378 -62.2598 -3.61004
head 214.504 -146.292 5.45336
rclavicle 5.56597e-015 -2.38542e-014
rhumerus -39.9133 -19.8339 -31.8295
rradius 94.3052
rwrist -43.2423
rhand -29.1204 -1.0211
rfingers 7.12502
rthumb -2.46794 -30.9866
lclavicle 5.56597e-015 -2.38542e-014
lhumerus 0.226509 5.65015 6.18834
lradius 79.1974
lwrist 7.17792
lhand -13.5925 -3.17223
lfingers 7.12502
lthumb 12.522 26.4326
rfemur -25.2358 0.602819 11.5104
rtibia 56.9558
rfoot -30.685 -23.363
rtoes -20.3914
lfemur -22.9158 -4.35251 -30.2781
ltibia 47.471
lfoot -17.6034 18.8552
ltoes 15.0936
1548
root 17.781 14.5626 0.706947 446.201 -98.7382 -447.295
lowerback 15.8602 0.600438 -6.81012
upperback 6.52852 -1.13461 -7.85977
thorax -1.97853 -0.843358 -4.2809
lowerneck -27.9513 5.18238 -7.89451
upperneck 6.60733 -62.1765 -3.71908
head 214.517 -145.842 5.4414
rclavicle 1.15295e-014 3.33958e-014
rhumerus -39.3396 -19.6622 -31.774
rradius 94.1203
rwrist -43.2391
rhand -29.2638 -0.855162
rfingers 7.12502
rthumb -2.60647 -30.819
lclavicle 1.15295e-014 3.33958e-014
lhumerus 0.106691 6.38924 5.91276
lradius 79.8107
lwrist 7.29026
lhand -13.259 -2.98684
lfingers 7.12502
lthumb 12.8436 26.598
rfemur -26.0452 0.967267 11.2774
rtibia 58.047
rfoot -30.9409 -23.3875
rtoes -20.4421
lfemur -23.4268 -4.05389 -30.5356
ltibia 48.2141
lfoot -17.878 18.9202
ltoes 15.8631
1549
root 17.7936 14.5169 0.69912 444.057 -98.4607 -444.987
lowerback 15.8018 0.631912 -6.47652
upperback 6.38986 -1.04209 -7.88432
thorax -2.10001 -0.785976 -4.51052
lowerneck -27.9886 5.13487 -7.74725
upperneck 6.73023 -62.1781 -3.87803
head 214.488 -145.371 5.56397
rclavicle 9.93923e-015 -7.95139e-015
rhumerus -38.8988 -19.4887 -31.6146
rradius 94.0394
rwrist -43.2762
rhand -29.3524 -0.836451
rfingers 7.12502
rthumb -2.69207 -30.7992
lclavicle 9.93923e-015 -7.95139e-015
lhumerus 0.109905 7.06871 5.70203
lradius 80.2833
lwrist 7.28352
lhand -12.8306 -2.80324
lfingers 7.12502
lthumb 13.2565 26.7552
rfemur -26.9014 1.48877 11.7399
rtibia 59.0422
rfoot -31.2992 -23.6766
rtoes -19.9823
lfemur -24.2515 -4.05201 -30.1773
ltibia 49.194
lfoot -18.2073 19.0408
ltoes 17.278
1550
root 17.7952 14.463 0.684443 443.184 -98.4506 -444.205
lowerback 15.7669 0.675763 -6.52315
upperback 6.40284 -0.996452 -7.96514
thorax -2.06643 -0.766747 -4.57996
lowerneck -27.97 5.13349 -7.53657
upperneck 6.78043 -62.1183 -3.93339
head 214.429 -145.072 5.62877
rclavicle -1.59028e-014 -1.06549e-013
rhumerus -38.4926 -19.3599 -31.5556
rradius 94.0077
rwrist -43.3376
rhand -29.3435 -1.001
rfingers 7.12502
rthumb -2.68347 -30.9639
lclavicle -1.59028e-014 -1.06549e-013
lhumerus 0.253907 7.63571 5.5109
lradius 80.6409
lwrist 7.47049
lhand -12.6927 -2.54941
lfingers 7.12502
lthumb 13.3894 27.0003
rfemur -27.425 2.00038 11.9216
rtibia 60.0498
rfoot -31.6152 -24.1914
rtoes -19.814
lfemur -24.794 -4.28182 -30.1359
ltibia 50.3154
lfoot -18.4207 19.1726
ltoes 18.7789
1551
root 17.7871 14.4011 0.665268 442.547 -98.5997 -443.889
lowerback 15.7541 0.784867 -6.77232
upperback 6.52235 -0.902708 -8.10444
thorax -1.92624 -0.733686 -4.60812
lowerneck -27.8672 5.10285 -7.30266
upperneck 6.93382 -62.2654 -4.0419
head 214.408 -144.739 5.70451
rclavicle -2.62396e-014 -7.15625e-014
rhumerus -38.2192 -19.3787 -31.5817
rradius 93.9789
rwrist -43.3488
rhand -29.3614 -1.18623
rfingers 7.12502
rthumb -2.70076 -31.1489
lclavicle -2.62396e-014 -7.15625e-014
lhumerus 0.546444 8.05729 5.37674
lradius 80.963
lwrist 7.8117
lhand -12.7774 -2.64174
lfingers 7.12502
lthumb 13.3078 26.9134
rfemur -27.6317 2.62754 11.9527
rtibia 61.0796
rfoot -31.9328 -24.546
rtoes -19.2621
lfemur -25.0501 -4.56613 -30.2805
ltibia 51.5131
lfoot -18.7616 19.2915
ltoes 20.1923
1552
root 17.7911 14.3322 0.631767 444.789 -98.4476 -446.231
lowerback 15.6887 0.767968 -6.89495
upperback 6.52904 -0.933474 -8.11831
thorax -1.88316 -0.75099 -4.54842
lowerneck -27.6648 5.00303 -7.09718
upperneck 7.26797 -62.5699 -4.32012
head 214.384 -144.349 5.92193
rclavicle -9.14409e-015 -9.22361e-014
rhumerus -38.0991 -19.4592 -31.5958
rradius 93.9029
rwrist -43.2273
rhand -29.4329 -1.24394
rfingers 7.12502
rthumb -2.76983 -31.2057
lclavicle -9.14409e-015 -9.22361e-014
lhumerus 0.984364 8.23889 5.34559
lradius 81.1943
lwrist 8.27463
lhand -12.935 -2.66122
lfingers 7.12502
lthumb 13.1558 26.9037
rfemur -28.0295 3.09524 12.3379
rtibia 62.1251
rfoot -32.3414 -24.9045
rtoes -18.1439
lfemur -25.7094 -5.06606 -30.0886
ltibia 52.8156
lfoot -19.1536 19.2388
ltoes 21.1834
1553
root 17.7903 14.2677 0.593745 448.415 -98.1307 -450.123
lowerback 15.7739 0.681773 -6.91665
upperback 6.61616 -1.0454 -8.03679
thorax -1.83707 -0.807953 -4.42903
lowerneck -27.5203 4.97313 -6.97388
upperneck 7.34611 -62.5854 -4.36978
head 214.324 -144.323 5.98361
rclavicle 2.66371e-014 7.4743e-014
rhumerus -38.0065 -19.578 -31.6602
rradius 93.9028
rwrist -43.1561
rhand -29.4965 -0.992769
rfingers 7.12502
rthumb -2.83119 -30.9537
lclavicle 2.66371e-014 7.4743e-014
lhumerus 1.51112 8.38736 5.45539
lradius 81.2342
lwrist 8.82538
lhand -12.9224 -2.23998
lfingers 7.12502
lthumb 13.168 27.3242
rfemur -28.1248 3.46099 12.9429
rtibia 63.0512
rfoot -32.6424 -25.5816
rtoes -17.9617
lfemur -26.195 -5.65423 -29.7386
ltibia 54.1895
lfoot -19.6365 19.1365
ltoes 21.9673
1554
root 17.7814 14.2071 0.554653 453.312 -97.6563 -455.349
lowerback 15.8372 0.514818 -6.82548
upperback 6.7814 -1.227 -7.84314
thorax -1.69772 -0.899154 -4.23993
lowerneck -27.5016 5.02194 -6.89409
upperneck 7.16549 -62.4025 -4.17324
head 214.265 -144.554 5.87188
rclavicle -3.97569e-015 -3.33958e-014
rhumerus -37.8418 -19.7822 -31.7811
rradius 94.0382
rwrist -43.1575
rhand -29.4155 -0.856658
rfingers 7.12502
rthumb -2.75303 -30.8186
lclavicle -3.97569e-015 -3.33958e-014
lhumerus 1.97119 8.63982 5.72692
lradius 81.1124
lwrist 9.01327
lhand -12.769 -2.36335
lfingers 7.12502
lthumb 13.3159 27.1912
rfemur -27.9886 3.66763 13.7913
rtibia 63.8106
rfoot -33.0429 -26.3186
rtoes -17.9689
lfemur -26.6023 -6.29403 -29.178
ltibia 55.634
lfoot -20.1383 19.0349
ltoes 22.6302
1555
root 17.7676 14.1493 0.513708 460.123 -97.0395 -462.378
lowerback 15.6806 0.309862 -6.52457
upperback 6.91847 -1.39019 -7.57943
thorax -1.47453 -0.97461 -4.09708
lowerneck -27.4246 4.97781 -6.74291
upperneck 7.30636 -62.6978 -4.2424
head 214.318 -144.285 5.85523
rclavicle 7.15625e-015 3.49861e-014
rhumerus -37.8342 -20.0419 -31.8631
rradius 94.1981
rwrist -43.0578
rhand -29.2658 -1.00329
rfingers 7.12502
rthumb -2.60844 -30.9671
lclavicle 7.15625e-015 3.49861e-014
lhumerus 2.52223 8.67986 6.09792
lradius 80.9219
lwrist 8.99529
lhand -12.8663 -2.987
lfingers 7.12502
lthumb 13.2221 26.5737
rfemur -27.8316 3.65603 14.9019
rtibia 64.375
rfoot -33.6456 -26.9834
rtoes -17.3306
lfemur -27.1654 -6.99168 -28.3205
ltibia 57.0838
lfoot -20.4645 18.9947
ltoes 23.6375
1556
root 17.7545 14.0996 0.468962 470.848 -96.2857 -473.261
lowerback 15.4106 0.032435 -5.91445
upperback 7.07841 -1.57837 -7.19141
thorax -1.17385 -1.05438 -3.99369
lowerneck -27.2141 4.98463 -6.69344
upperneck 7.41637 -62.9382 -4.26128
head 214.391 -144.307 5.73159
rclavicle 2.78299e-014 8.26944e-014
rhumerus -37.9947 -20.2213 -31.9039
rradius 94.3895
rwrist -43.0014
rhand -29.42 -0.947928
rfingers 7.12502
rthumb -2.75735 -30.9099
lclavicle 2.78299e-014 8.26944e-014
lhumerus 3.08788 8.4944 6.48916
lradius 80.7782
lwrist 9.12644
lhand -13.3236 -2.9731
lfingers 7.12502
lthumb 12.7813 26.6157
rfemur -27.6314 3.32819 16.3856
rtibia 64.7334
rfoot -34.2382 -27.5052
rtoes -16.2547
lfemur -27.8561 -7.75588 -27.0554
ltibia 58.4855
lfoot -20.3597 19.116
ltoes 24.6587
1557
root 17.7384 14.052 0.42262 484.275 -95.6891 -487.208
lowerback 15.536 -0.231859 -5.25515
upperback 7.33278 -1.78802 -6.70628
thorax -0.983421 -1.14683 -3.81264
lowerneck -27.1277 4.96842 -6.66792
upperneck 7.43644 -63.0211 -4.24132
head 214.391 -144.402 5.70923
rclavicle 2.14687e-014 4.6118e-014
rhumerus -38.2511 -20.0549 -31.9678
rradius 94.8303
rwrist -43.1393
rhand -29.8743 -0.873869
rfingers 7.12502
rthumb -3.19607 -30.8297
lclavicle 2.14687e-014 4.6118e-014
lhumerus 3.41725 8.26483 6.8654
lradius 80.7274
lwrist 9.22784
lhand -13.376 -2.75825
lfingers 7.12502
lthumb 12.7307 26.8337
rfemur -26.9629 2.82253 18.0264
rtibia 64.9259
rfoot -34.8122 -27.7925
rtoes -15.1318
lfemur -28.0522 -8.35598 -25.7056
ltibia 59.7514
lfoot -20.2302 19.2706
ltoes 24.5352
